<?xml version="1.0" encoding="utf-8"?>
<!-- Generator: Adobe Illustrator 23.0.1, SVG Export Plug-In . SVG Version: 6.00 Build 0)  -->
<svg version="1.1" id="Livello_1" xmlns="http://www.w3.org/2000/svg" xmlns:xlink="http://www.w3.org/1999/xlink" x="0px" y="0px"
	 viewBox="0 0 86.94 103.91" style="enable-background:new 0 0 86.94 103.91;" xml:space="preserve">
<style type="text/css">
	.st0{fill:#FFFFFF;}
</style>
<path class="st0" d="M44.91,60.58c-3.89,4.46-7.73,8.87-11.57,13.27c-3.2,3.67-6.39,7.33-9.58,11.01c-0.51,0.59-1.09,1.03-1.91,1.04
	c-1.05,0-1.89-0.89-1.83-1.94c0.02-0.42,0.05-0.85,0.05-1.28c0-20.56,0-41.13,0-61.69c0-0.88-0.05-1.75-0.05-2.63
	c0-0.55,0.04-1.1,0.12-1.65c0.17-1.11,0.81-1.69,1.92-1.74c0.83-0.04,1.65-0.07,2.48-0.07c14.14,0.02,28.29,0.04,42.43,0.07
	c0.45,0,0.91,0.01,1.34,0.11c0.9,0.2,1.46,0.92,1.48,1.84c0.02,0.9,0,1.81,0,2.71c0,21.17,0,42.33,0.01,63.5
	c0,0.28,0,0.55-0.01,0.83c-0.03,0.84-0.33,1.53-1.13,1.88c-0.82,0.36-1.52,0.17-2.22-0.61c-1.14-1.27-2.26-2.55-3.38-3.84
	c-5.88-6.75-11.76-13.5-17.64-20.25C45.27,60.96,45.11,60.8,44.91,60.58z"/>
</svg>
